HIERARCHY
ROOT Hips
{
	OFFSET 0.00000 0.00000 0.00000
	CHANNELS 6 Xposition Yposition Zposition Yrotation Zrotation Xrotation 
	JOINT Lumbar
	{
		OFFSET 0 0 0
		CHANNELS 3 Zrotation Xrotation Yrotation
		JOINT Neck
		{
			OFFSET 0.00 0.2701 0.00
			CHANNELS 3 Zrotation Xrotation Yrotation
			End Site
			{
				OFFSET 0.00 0.1379 0.00
			}
		}
		JOINT RightShoulder
		{
			OFFSET 0.0119 0.2289 0.1181
			CHANNELS 3 Zrotation Xrotation Yrotation
			JOINT RightElbow
			{
				OFFSET 0.00 -0.1475 0.00
				CHANNELS 2 Zrotation Yrotation
				JOINT RightWrist
				{
					OFFSET 0.00 -0.1605 0.00
					CHANNELS 2 Zrotation Xrotation
					End Site
					{
						OFFSET 0.0040 -0.1068 0.0006
					}
				}
			}
		}
		JOINT LeftShoulder
		{
			OFFSET 0.0119 0.2289 -0.1181
			CHANNELS 3 Zrotation Xrotation Yrotation
			JOINT LeftElbow
			{
				OFFSET 0.00 -0.1475 0.00
				CHANNELS 2 Zrotation Yrotation
				JOINT LeftWrist
				{
					OFFSET 0.00 -0.1605 0.00
					CHANNELS 2 Zrotation Xrotation
					End Site
					{
						OFFSET 0.0040 -0.1068 -0.0006
					}
				}
			}
		}
	}
	JOINT RightHip
	{
		OFFSET 0.0316 -0.0424 0.0458
		CHANNELS 3 Zrotation Xrotation Yrotation
		JOINT RightKnee
		{
			OFFSET 0.00 -0.2438 0.00
			CHANNELS 1 Zrotation
			JOINT RightAnkle
			{
				OFFSET 0.00 -0.2449 0.00
				CHANNELS 3 Zrotation Xrotation Yrotation
				End Site
				{
					OFFSET 0.1237 -0.0542 0.0051
				}
			}
		}
	}
	JOINT LeftHip
	{
		OFFSET 0.0316 -0.0424 -0.0458
		CHANNELS 3 Zrotation Xrotation Yrotation
		JOINT LeftKnee
		{
			OFFSET 0.00 -0.2438 0.00
			CHANNELS 1 Zrotation
			JOINT LeftAnkle
			{
				OFFSET 0.00 -0.2449 0.00
				CHANNELS 3 Zrotation Xrotation Yrotation
				End Site
				{
					OFFSET 0.1237 -0.0542 -0.0051
				}
			}
		}
	}
}
MOTION
Frames: 25
Frame Time: 0.02
0.68409 -0.14258 0.68769 539.36445 -10.44338 -5.35772 14.82526 1.50109 -7.25011 -23.32687 24.80838 -0.83079 2.56355 -6.2133 28.79462 121.7428 97.42004 16.66531 0.66422 15.74892 5.19611 -29.57521 107.92839 -60.31885 29.96975 6.10408 77.09184 -12.60404 -6.37359 -64.68508 -10.97755 -4.3491 -3.16765 81.46609 0.87498 4.99221 -68.75216 -12.03761 5.03777 3.63102
0.68406 -0.14263 0.68768 539.38887 -10.40683 -5.35286 14.73773 1.50315 -7.22785 -23.29215 24.86055 -0.83079 2.26433 -6.29852 28.57532 121.7834 97.74249 17.13249 0.46017 15.62678 5.03533 -29.66016 108.03395 -59.14433 31.64448 6.16669 77.05236 -12.68836 -6.48977 -64.70054 -10.96712 -4.34389 -3.16372 81.43153 0.84788 4.97308 -68.76556 -12.03471 5.03869 3.63176
0.68408 -0.14269 0.68768 539.41626 -10.38252 -5.34872 14.6274 1.50265 -7.2069 -23.13006 24.95604 -0.83079 2.0438 -6.36283 28.22911 121.76255 98.38191 17.71088 0.1754 15.54886 4.74636 -29.69558 108.1174 -57.51678 33.87195 6.25868 77.02624 -12.78398 -6.62702 -64.70876 -10.95127 -4.33728 -3.15883 81.40949 0.82115 4.95791 -68.76882 -12.02966 5.0402 3.63271
0.68407 -0.14274 0.68768 539.44032 -10.35346 -5.34427 14.53309 1.50281 -7.18906 -23.03555 25.02702 -0.83079 1.80114 -6.43474 27.91668 121.75348 98.84299 18.26958 -0.0696 15.46487 4.53095 -29.75613 108.19789 -56.22205 35.74147 6.32708 76.99453 -12.87045 -6.75111 -64.71999 -10.93669 -4.33129 -3.15433 81.38234 0.79605 4.94093 -68.77685 -12.02517 5.04173 3.6337
0.68406 -0.14281 0.68767 539.47221 -10.32006 -5.33962 14.4161 1.50458 -7.15607 -22.90307 25.11716 -0.83079 1.50416 -6.51332 27.69981 121.81046 99.44241 18.70335 -0.32728 15.32911 4.25049 -29.8067 108.33355 -54.42016 38.03676 6.43634 76.95968 -12.97436 -6.89196 -64.73296 -10.92661 -4.32526 -3.14994 81.35182 0.7634 4.92325 -68.785 -12.02223 5.04217 3.63417
0.68407 -0.14285 0.68767 539.48883 -10.29806 -5.33564 14.3392 1.50278 -7.15473 -22.81836 25.17844 -0.83079 1.33823 -6.57374 27.25801 121.71818 99.83075 19.41815 -0.57768 15.30832 4.07459 -29.8671 108.35047 -53.54108 39.59999 6.46955 76.93396 -13.04514 -7.00333 -64.74036 -10.90615 -4.31898 -3.1451 81.33077 0.74634 4.908 -68.79024 -12.01569 5.04494 3.63574
0.68409 -0.14283 0.68765 539.46092 -10.31599 -5.3328 14.39458 1.48926 -7.24083 -22.89552 25.14582 -0.83079 1.50941 -6.58675 26.20036 121.20304 99.56824 20.92516 -0.78984 15.60056 4.22712 -29.95171 108.02558 -55.51035 38.82961 6.27059 76.94279 -13.01263 -7.01437 -64.73409 -10.85754 -4.3129 -3.13962 81.34379 0.77472 4.90187 -68.7889 -11.99892 5.05445 3.64053
0.68412 -0.14278 0.68763 539.41787 -10.34332 -5.33067 14.48837 1.47269 -7.35851 -23.02459 25.08355 -0.83079 1.81033 -6.58273 24.92703 120.54478 99.08254 22.70235 -0.99136 16.0048 4.48795 -30.05036 107.58499 -58.39029 37.3344 5.99678 76.95856 -12.94763 -6.99671 -64.72237 -10.79893 -4.30657 -3.1337 81.36433 0.81835 4.89767 -68.78496 -11.97876 5.0662 3.64638
0.68415 -0.14275 0.68761 539.38291 -10.35883 -5.32865 14.5538 1.45925 -7.46152 -23.13069 25.03725 -0.83079 2.05483 -6.58838 23.76839 119.96858 98.69255 24.32789 -1.19715 16.35259 4.69383 -30.15212 107.2101 -60.72327 36.29258 5.76748 76.96287 -12.90361 -7.00142 -64.71314 -10.74544 -4.29998 -3.12777 81.37429 0.85333 4.89041 -68.78284 -11.96067 5.07661 3.65159
0.68417 -0.1427 0.68758 539.34308 -10.40574 -5.32504 14.66349 1.43857 -7.56628 -23.23121 24.98157 -0.83079 2.2911 -6.58553 22.53041 119.31746 98.33375 26.08137 -1.40939 16.72549 4.91923 -30.21222 106.7802 -63.58891 34.76017 5.49582 77.00161 -12.83488 -6.96947 -64.70372 -10.68916 -4.2948 -3.12261 81.41412 0.89547 4.89211 -68.77798 -11.94025 5.08839 3.65749
0.68421 -0.14269 0.68757 539.30959 -10.39042 -5.32463 14.69163 1.43204 -7.67444 -23.35555 24.93822 -0.83079 2.57468 -6.59611 21.41373 118.79036 97.85775 27.62838 -1.60306 17.07209 5.13158 -30.36295 106.43626 -65.58439 34.05305 5.29309 76.97144 -12.80837 -7.00435 -64.69333 -10.63657 -4.28678 -3.11585 81.3943 0.92645 4.87603 -68.77799 -11.92393 5.09786 3.66219
0.68426 -0.14284 0.68756 539.29883 -10.19139 -5.33524 14.47475 1.46729 -7.78806 -23.54893 24.93237 -0.83079 2.95285 -6.65239 20.63718 118.63125 97.06961 28.56078 -1.76111 17.31784 5.27997 -30.76101 106.37076 -64.80527 35.95044 5.30921 76.73781 -12.91819 -7.25183 -64.68306 -10.59502 -4.26989 -3.10394 81.19984 0.92169 4.8065 -68.79519 -11.91962 5.10033 3.66329
0.68432 -0.14303 0.68756 539.29472 -9.93114 -5.3486 14.17656 1.51654 -7.90331 -23.76228 24.94026 -0.83079 3.37416 -6.72206 19.99926 118.60396 96.17757 29.27104 -1.89811 17.53293 5.41215 -31.24943 106.39384 -63.14691 38.67455 5.39562 76.43667 -13.06948 -7.56371 -64.67183 -10.55784 -4.25037 -3.09057 80.94656 0.90543 4.71979 -68.81691 -11.91958 5.1004 3.66314
0.68438 -0.1432 0.68755 539.2865 -9.70512 -5.35912 13.92249 1.55814 -8.01533 -23.95644 24.9444 -0.83079 3.77862 -6.78278 19.3303 118.52284 95.36 30.06879 -2.03561 17.76265 5.5537 -31.6971 106.36764 -61.99375 40.91813 5.44256 76.17389 -13.19376 -7.83198 -64.66003 -10.51971 -4.2328 -3.0784 80.72541 0.89515 4.64336 -68.83454 -11.91768 5.10161 3.6636
0.68445 -0.14339 0.68755 539.28215 -9.45236 -5.37633 13.63932 1.6051 -8.13895 -24.19441 24.93781 -0.83079 4.17764 -6.85498 18.52056 118.41103 94.42037 30.93461 -2.21058 17.99433 5.69157 -32.14607 106.37397 -60.435 43.57276 5.51714 75.87889 -13.35077 -8.15907 -64.652 -10.47683 -4.21205 -3.06399 80.48161 0.88207 4.55626 -68.86048 -11.91531 5.10271 3.66395
0.6845 -0.14353 0.68755 539.27176 -9.24066 -5.38032 13.39714 1.64419 -8.23842 -24.34598 24.95618 -0.83079 4.59452 -6.90668 18.03756 118.39634 93.71247 31.6002 -2.30327 18.212 5.83051 -32.61087 106.33698 -59.48935 45.58515 5.55372 75.63493 -13.45064 -8.38027 -64.63629 -10.44502 -4.19728 -3.05388 80.27105 0.87208 4.48766 -68.87046 -11.91497 5.10342 3.66419
0.68454 -0.14353 0.68754 539.24107 -9.15715 -5.3465 13.28645 1.65881 -8.27013 -24.24758 25.04937 -0.83079 5.06658 -6.89836 18.44395 118.61882 93.67914 31.78191 -2.16806 18.40791 5.9874 -33.121 106.14325 -60.5438 45.54887 5.4515 75.54813 -13.37625 -8.28513 -64.59702 -10.44281 -4.20003 -3.05628 80.16569 0.87188 4.47096 -68.83305 -11.91937 5.10387 3.66463
0.68457 -0.14347 0.68752 539.20452 -9.11709 -5.29941 13.21992 1.66492 -8.27736 -24.06255 25.1658 -0.83079 5.55139 -6.86903 19.17174 118.93536 93.88363 31.76425 -1.95179 18.58836 6.14332 -33.63957 105.90642 -62.2243 44.85156 5.31164 75.51511 -13.24424 -8.08286 -64.55061 -10.45165 -4.20883 -3.06303 80.096 0.87539 4.47405 -68.77987 -11.92564 5.10396 3.66496
0.68461 -0.14343 0.68751 539.17202 -9.05721 -5.25874 13.13405 1.67445 -8.29621 -23.92111 25.26546 -0.83079 6.01895 -6.84953 19.73947 119.20826 93.97221 31.82864 -1.77665 18.76924 6.2919 -34.13847 105.69993 -63.55278 44.51258 5.20085 75.45757 -13.14292 -7.93514 -64.50916 -10.45538 -4.21461 -3.06759 80.01051 0.87819 4.47039 -68.73531 -11.93098 5.10405 3.66519
0.68465 -0.14339 0.68751 539.13388 -8.99545 -5.2164 13.04236 1.68627 -8.31343 -23.76235 25.3911 -0.83079 6.5365 -6.82942 20.37028 119.48788 94.08335 31.92734 -1.58311 18.97731 6.47287 -34.7068 105.45072 -65.13449 43.97126 5.04376 75.39781 -13.02408 -7.76493 -64.4603 -10.45951 -4.22141 -3.07295 79.92104 0.87658 4.4569 -68.68461 -11.93687 5.10476 3.666
0.68467 -0.14335 0.68748 539.106 -8.94879 -5.17454 12.97425 1.69121 -8.32774 -23.61912 25.46884 -0.83079 6.95231 -6.80528 20.94513 119.77611 94.21383 31.90288 -1.40837 19.12504 6.58631 -35.13205 105.27953 -66.3509 43.66643 4.97101 75.35658 -12.92742 -7.61523 -64.42535 -10.46553 -4.22763 -3.07775 79.84936 0.88505 4.46849 -68.64308 -11.94192 5.10413 3.6656
0.68465 -0.14334 0.68737 539.10809 -8.93304 -5.13561 12.96151 1.67861 -8.34392 -23.53723 25.40074 -0.83079 7.0841 -6.77587 21.27614 120.0487 94.26376 31.65331 -1.31087 19.11348 6.51352 -35.15282 105.33095 -66.38967 44.32849 5.15987 75.35155 -12.90685 -7.54839 -64.42905 -10.47257 -4.23012 -3.07943 79.81599 0.92172 4.5474 -68.62905 -11.94478 5.09976 3.66178
0.68462 -0.14333 0.68723 539.12065 -8.93137 -5.09791 12.97123 1.65945 -8.35732 -23.47432 25.28488 -0.83079 7.1127 -6.74259 21.53905 120.32967 94.33672 31.27828 -1.23466 19.04125 6.37289 -35.02963 105.46291 -66.0463 45.22369 5.43114 75.36397 -12.91028 -7.50551 -64.44717 -10.48133 -4.23193 -3.08047 79.79997 0.96825 4.65049 -68.625 -11.94661 5.09407 3.65678
0.68459 -0.14333 0.68711 539.12819 -8.92358 -5.06073 12.97031 1.64365 -8.36937 -23.40448 25.19621 -0.83079 7.18842 -6.711 21.84203 120.61624 94.4531 30.9147 -1.14462 18.99461 6.26337 -34.97744 105.5593 -65.89278 45.90221 5.65125 75.36997 -12.90205 -7.45136 -64.45978 -10.49038 -4.23453 -3.08216 79.77769 1.00946 4.74056 -68.61759 -11.94849 5.08906 3.65242
0.68456 -0.14332 0.68697 539.13649 -8.91584 -5.0186 12.97249 1.6259 -8.39144 -23.32469 25.08586 -0.83079 7.26412 -6.68042 22.12604 120.86425 94.36227 30.72454 -1.06732 18.95569 6.15258 -34.90449 105.64839 -65.69293 47.00596 5.92706 75.37155 -12.89497 -7.39527 -64.46816 -10.49556 -4.23541 -3.08256 79.74981 1.05425 4.83949 -68.60507 -11.95216 5.08373 3.64764
